<svg width="20" height="20" viewBox="0 0 20 20" fill="none" xmlns="http://www.w3.org/2000/svg">
<path d="M10 12.6666C11.4728 12.6666 12.6667 11.4727 12.6667 9.99998C12.6667 8.52722 11.4728 7.33331 10 7.33331C8.52728 7.33331 7.33337 8.52722 7.33337 9.99998C7.33337 11.4727 8.52728 12.6666 10 12.6666Z" fill="black"/>
<path d="M7.49996 1.66669L5.97496 3.33335H3.33329C2.41663 3.33335 1.66663 4.08335 1.66663 5.00002V15C1.66663 15.9167 2.41663 16.6667 3.33329 16.6667H16.6666C17.5833 16.6667 18.3333 15.9167 18.3333 15V5.00002C18.3333 4.08335 17.5833 3.33335 16.6666 3.33335H14.025L12.5 1.66669H7.49996ZM9.99996 14.1667C7.69996 14.1667 5.83329 12.3 5.83329 10C5.83329 7.70002 7.69996 5.83335 9.99996 5.83335C12.3 5.83335 14.1666 7.70002 14.1666 10C14.1666 12.3 12.3 14.1667 9.99996 14.1667Z" fill="black"/>
</svg>
