<svg width="24" height="24" viewBox="0 0 24 24" fill="none" xmlns="http://www.w3.org/2000/svg">
<path d="M22.2858 11.8971C22.2697 13.6819 21.7599 15.4274 20.8129 16.9403C19.8658 18.4531 18.5185 19.6743 16.9201 20.4686L12.0001 23.1429L7.08008 20.5714C5.46612 19.7694 4.10846 18.5321 3.16035 16.9994C2.21223 15.4667 1.7114 13.6994 1.71437 11.8971V2.57143C1.71437 2.11677 1.89498 1.68074 2.21647 1.35925C2.53796 1.03776 2.974 0.857143 3.42865 0.857143H20.5715C21.0262 0.857143 21.4622 1.03776 21.7837 1.35925C22.1052 1.68074 22.2858 2.11677 22.2858 2.57143V11.8971Z" stroke="black" stroke-linecap="round" stroke-linejoin="round"/>
<path d="M9.42873 13.7143C9.42873 14.3963 9.69965 15.0503 10.1819 15.5326C10.6641 16.0148 11.3182 16.2857 12.0002 16.2857M12.0002 16.2857C12.3444 16.3113 12.6901 16.2624 13.0137 16.1422C13.3373 16.022 13.6312 15.8335 13.8753 15.5894C14.1193 15.3453 14.3079 15.0514 14.4281 14.7278C14.5482 14.4042 14.5972 14.0585 14.5716 13.7143C14.5716 11.1429 9.42873 11.1429 9.42873 8.57143C9.40312 8.22719 9.45208 7.88148 9.57225 7.55788C9.69242 7.23428 9.88098 6.94042 10.1251 6.69633C10.3691 6.45224 10.663 6.26368 10.9866 6.14351C11.3102 6.02334 11.6559 5.97439 12.0002 6M12.0002 16.2857V18M12.0002 6C12.6821 6 13.3362 6.27092 13.8184 6.75315C14.3007 7.23539 14.5716 7.88944 14.5716 8.57143M12.0002 6V4.28571" stroke="black" stroke-linecap="round" stroke-linejoin="round"/>
</svg>
