<svg width="220" height="220" viewBox="0 0 220 220" fill="none" xmlns="http://www.w3.org/2000/svg">
<g filter="url(#filter0_dd_31_2)">
<path d="M14.1488 132.887L37.3175 88.8181C39.3113 85.0369 43.23 82.6994 47.4925 82.6994H94.5175C94.791 82.6994 95.0533 82.808 95.2467 83.0014C95.4401 83.1948 95.5488 83.4571 95.5488 83.7306V151.016L13.0488 138.318C13.0488 136.462 13.3925 134.606 14.1488 132.887Z" fill="url(#paint0_linear_31_2)"/>
</g>
<path d="M14.1488 132.887L37.3175 88.8181C39.3113 85.0369 43.23 82.6994 47.4925 82.6994H94.5175C94.791 82.6994 95.0533 82.808 95.2467 83.0014C95.4401 83.1948 95.5488 83.4571 95.5488 83.7306V151.016L13.0488 138.318C13.0488 136.462 13.3925 134.606 14.1488 132.887Z" fill="url(#paint1_linear_31_2)"/>
<path d="M14.1488 132.887L37.3175 88.8181C39.3113 85.0369 43.23 82.6994 47.4925 82.6994H94.5175C94.791 82.6994 95.0533 82.808 95.2467 83.0014C95.4401 83.1948 95.5488 83.4571 95.5488 83.7306V151.016L13.0488 138.318C13.0488 136.462 13.3925 134.606 14.1488 132.887Z" fill="url(#paint2_linear_31_2)"/>
<g filter="url(#filter1_dd_31_2)">
<path d="M184.924 48.3244H116.174C104.761 48.3244 95.5488 57.5369 95.5488 68.9494V146.3H205.549V68.9562C205.549 57.5437 196.336 48.3312 184.924 48.3312V48.3244Z" fill="url(#paint3_linear_31_2)"/>
</g>
<path d="M184.924 48.3244H116.174C104.761 48.3244 95.5488 57.5369 95.5488 68.9494V146.3H205.549V68.9562C205.549 57.5437 196.336 48.3312 184.924 48.3312V48.3244Z" fill="url(#paint4_linear_31_2)"/>
<path d="M184.924 48.3244H116.174C104.761 48.3244 95.5488 57.5369 95.5488 68.9494V146.3H205.549V68.9562C205.549 57.5437 196.336 48.3312 184.924 48.3312V48.3244Z" fill="url(#paint5_linear_31_2)"/>
<path d="M15.18 130.824H60.4862C64.68 130.824 68.0487 127.456 68.0487 123.262V97.2056C68.0487 93.0119 64.68 89.6431 60.4862 89.6431H36.9737L15.18 130.824Z" fill="url(#paint6_linear_31_2)"/>
<path d="M15.18 130.824H60.4862C64.68 130.824 68.0487 127.456 68.0487 123.262V97.2056C68.0487 93.0119 64.68 89.6431 60.4862 89.6431H36.9737L15.18 130.824Z" fill="url(#paint7_linear_31_2)"/>
<path d="M15.18 130.824H60.4862C64.68 130.824 68.0487 127.456 68.0487 123.262V97.2056C68.0487 93.0119 64.68 89.6431 60.4862 89.6431H36.9737L15.18 130.824Z" fill="url(#paint8_linear_31_2)"/>
<path d="M95.5488 185.859V137.665H205.549V173.484C205.549 180.29 199.98 185.859 193.174 185.859H95.5488Z" fill="url(#paint9_linear_31_2)"/>
<path d="M95.5488 185.859V137.665H205.549V173.484C205.549 180.29 199.98 185.859 193.174 185.859H95.5488Z" fill="url(#paint10_linear_31_2)"/>
<path d="M95.5488 185.859V137.665H205.549V173.484C205.549 180.29 199.98 185.859 193.174 185.859H95.5488Z" fill="url(#paint11_linear_31_2)"/>
<g filter="url(#filter2_dd_31_2)">
<path d="M160.861 192.699C163.596 192.699 166.219 191.613 168.153 189.679C170.087 187.745 171.174 185.122 171.174 182.387C171.174 179.652 170.087 177.029 168.153 175.095C166.219 173.161 163.596 172.074 160.861 172.074C158.126 172.074 155.503 173.161 153.569 175.095C151.635 177.029 150.549 179.652 150.549 182.387C150.549 185.122 151.635 187.745 153.569 189.679C155.503 191.613 158.126 192.699 160.861 192.699Z" fill="#D9C3F0"/>
</g>
<path d="M205.549 151.449H202.111C196.267 151.449 191.524 156.331 191.799 162.243C192.074 167.812 196.886 172.074 202.455 172.074H205.549V151.449Z" fill="url(#paint12_linear_31_2)"/>
<path d="M95.5488 137.699H13.0488V173.656C13.0488 180.393 18.5488 185.893 25.2863 185.893H95.5488V137.699Z" fill="url(#paint13_linear_31_2)"/>
<path d="M95.5488 137.699H13.0488V173.656C13.0488 180.393 18.5488 185.893 25.2863 185.893H95.5488V137.699Z" fill="url(#paint14_linear_31_2)"/>
<path d="M95.5488 137.699H13.0488V173.656C13.0488 180.393 18.5488 185.893 25.2863 185.893H95.5488V137.699Z" fill="url(#paint15_linear_31_2)"/>
<path d="M95.5488 137.699H13.0488V173.656C13.0488 180.393 18.5488 185.893 25.2863 185.893H95.5488V137.699Z" fill="url(#paint16_linear_31_2)"/>
<path fill-rule="evenodd" clip-rule="evenodd" d="M85.7931 185.893C86.2891 182.098 85.9697 178.241 84.8561 174.579C83.7426 170.918 81.8605 167.536 79.3357 164.66C76.8109 161.783 73.7014 159.479 70.215 157.9C66.7285 156.321 62.9454 155.505 59.1181 155.505C55.2909 155.505 51.5077 156.321 48.0213 157.9C44.5348 159.479 41.4253 161.783 38.9005 164.66C36.3757 167.536 34.4937 170.918 33.3801 174.579C32.2666 178.241 31.9471 182.098 32.4431 185.893H85.7931Z" fill="url(#paint17_linear_31_2)"/>
<path fill-rule="evenodd" clip-rule="evenodd" d="M187.536 185.893C188.032 182.098 187.713 178.241 186.599 174.579C185.486 170.918 183.604 167.536 181.079 164.66C178.554 161.783 175.445 159.479 171.958 157.9C168.472 156.321 164.688 155.505 160.861 155.505C157.034 155.505 153.251 156.321 149.764 157.9C146.278 159.479 143.168 161.783 140.644 164.66C138.119 167.536 136.237 170.918 135.123 174.579C134.01 178.241 133.69 182.098 134.186 185.893H187.536Z" fill="url(#paint18_linear_31_2)"/>
<g filter="url(#filter3_dd_31_2)">
<path d="M161.061 206.25C167.39 206.25 173.459 203.736 177.934 199.261C182.41 194.785 184.924 188.716 184.924 182.387C184.924 176.058 182.41 169.988 177.934 165.513C173.459 161.038 167.39 158.524 161.061 158.524C154.732 158.524 148.662 161.038 144.187 165.513C139.712 169.988 137.198 176.058 137.198 182.387C137.198 188.716 139.712 194.785 144.187 199.261C148.662 203.736 154.732 206.25 161.061 206.25Z" fill="url(#paint19_linear_31_2)"/>
<path d="M161.061 206.25C167.39 206.25 173.459 203.736 177.934 199.261C182.41 194.785 184.924 188.716 184.924 182.387C184.924 176.058 182.41 169.988 177.934 165.513C173.459 161.038 167.39 158.524 161.061 158.524C154.732 158.524 148.662 161.038 144.187 165.513C139.712 169.988 137.198 176.058 137.198 182.387C137.198 188.716 139.712 194.785 144.187 199.261C148.662 203.736 154.732 206.25 161.061 206.25Z" fill="url(#paint20_radial_31_2)"/>
</g>
<g filter="url(#filter4_dd_31_2)">
<path d="M161.081 191.194C163.417 191.194 165.657 190.266 167.309 188.614C168.96 186.963 169.888 184.723 169.888 182.387C169.888 180.051 168.96 177.811 167.309 176.159C165.657 174.508 163.417 173.58 161.081 173.58C158.746 173.58 156.505 174.508 154.854 176.159C153.202 177.811 152.274 180.051 152.274 182.387C152.274 184.723 153.202 186.963 154.854 188.614C156.505 190.266 158.746 191.194 161.081 191.194Z" fill="#D9C3F0"/>
</g>
<path d="M19.305 172.074H13.0488V144.574H19.305C23.43 144.574 26.7988 147.943 26.7988 152.068V164.581C26.7988 168.706 23.43 172.074 19.305 172.074Z" fill="#F8DA4B"/>
<g filter="url(#filter5_dd_31_2)">
<path d="M59.1181 206.25C65.447 206.25 71.5167 203.736 75.9919 199.261C80.4671 194.785 82.9813 188.716 82.9813 182.387C82.9813 176.058 80.4671 169.988 75.9919 165.513C71.5167 161.038 65.447 158.524 59.1181 158.524C52.7892 158.524 46.7196 161.038 42.2444 165.513C37.7691 169.988 35.255 176.058 35.255 182.387C35.255 188.716 37.7691 194.785 42.2444 199.261C46.7196 203.736 52.7892 206.25 59.1181 206.25Z" fill="url(#paint21_linear_31_2)"/>
<path d="M59.1181 206.25C65.447 206.25 71.5167 203.736 75.9919 199.261C80.4671 194.785 82.9813 188.716 82.9813 182.387C82.9813 176.058 80.4671 169.988 75.9919 165.513C71.5167 161.038 65.447 158.524 59.1181 158.524C52.7892 158.524 46.7196 161.038 42.2444 165.513C37.7691 169.988 35.255 176.058 35.255 182.387C35.255 188.716 37.7691 194.785 42.2444 199.261C46.7196 203.736 52.7892 206.25 59.1181 206.25Z" fill="url(#paint22_radial_31_2)"/>
</g>
<g filter="url(#filter6_dd_31_2)">
<path d="M59.1319 191.194C61.4676 191.194 63.7077 190.266 65.3593 188.614C67.0109 186.963 67.9388 184.723 67.9388 182.387C67.9388 180.051 67.0109 177.811 65.3593 176.159C63.7077 174.508 61.4676 173.58 59.1319 173.58C56.7962 173.58 54.5561 174.508 52.9045 176.159C51.2529 177.811 50.325 180.051 50.325 182.387C50.325 184.723 51.2529 186.963 52.9045 188.614C54.5561 190.266 56.7962 191.194 59.1319 191.194Z" fill="#D9C3F0"/>
</g>
<g filter="url(#filter7_f_31_2)">
<path d="M60.1975 196.522C69.2988 196.522 76.6769 189.144 76.6769 180.042C76.6769 170.941 69.2988 163.563 60.1975 163.563C51.0962 163.563 43.7181 170.941 43.7181 180.042C43.7181 189.144 51.0962 196.522 60.1975 196.522Z" stroke="url(#paint23_linear_31_2)" stroke-width="0.85"/>
</g>
<g filter="url(#filter8_f_31_2)">
<path d="M162.436 196.522C171.537 196.522 178.915 189.144 178.915 180.042C178.915 170.941 171.537 163.563 162.436 163.563C153.334 163.563 145.956 170.941 145.956 180.042C145.956 189.144 153.334 196.522 162.436 196.522Z" stroke="url(#paint24_linear_31_2)" stroke-width="0.85"/>
</g>
<defs>
<filter id="filter0_dd_31_2" x="11.5488" y="82.1994" width="85.0001" height="69.5169" filterUnits="userSpaceOnUse" color-interpolation-filters="sRGB">
<feFlood flood-opacity="0" result="BackgroundImageFix"/>
<feColorMatrix in="SourceAlpha" type="matrix" values="0 0 0 0 0 0 0 0 0 0 0 0 0 0 0 0 0 0 127 0" result="hardAlpha"/>
<feOffset dx="-1" dy="0.2"/>
<feGaussianBlur stdDeviation="0.25"/>
<feComposite in2="hardAlpha" operator="out"/>
<feColorMatrix type="matrix" values="0 0 0 0 1 0 0 0 0 0.945098 0 0 0 0 0.996078 0 0 0 1 0"/>
<feBlend mode="normal" in2="BackgroundImageFix" result="effect1_dropShadow_31_2"/>
<feColorMatrix in="SourceAlpha" type="matrix" values="0 0 0 0 0 0 0 0 0 0 0 0 0 0 0 0 0 0 127 0" result="hardAlpha"/>
<feOffset dx="0.5"/>
<feGaussianBlur stdDeviation="0.25"/>
<feComposite in2="hardAlpha" operator="out"/>
<feColorMatrix type="matrix" values="0 0 0 0 0.678431 0 0 0 0 0.639216 0 0 0 0 0.643137 0 0 0 1 0"/>
<feBlend mode="normal" in2="effect1_dropShadow_31_2" result="effect2_dropShadow_31_2"/>
<feBlend mode="normal" in="SourceGraphic" in2="effect2_dropShadow_31_2" result="shape"/>
</filter>
<filter id="filter1_dd_31_2" x="94.0488" y="47.8244" width="112.8" height="98.9756" filterUnits="userSpaceOnUse" color-interpolation-filters="sRGB">
<feFlood flood-opacity="0" result="BackgroundImageFix"/>
<feColorMatrix in="SourceAlpha" type="matrix" values="0 0 0 0 0 0 0 0 0 0 0 0 0 0 0 0 0 0 127 0" result="hardAlpha"/>
<feOffset dx="0.8"/>
<feGaussianBlur stdDeviation="0.25"/>
<feComposite in2="hardAlpha" operator="out"/>
<feColorMatrix type="matrix" values="0 0 0 0 0.784314 0 0 0 0 0.615686 0 0 0 0 0.258824 0 0 0 1 0"/>
<feBlend mode="normal" in2="BackgroundImageFix" result="effect1_dropShadow_31_2"/>
<feColorMatrix in="SourceAlpha" type="matrix" values="0 0 0 0 0 0 0 0 0 0 0 0 0 0 0 0 0 0 127 0" result="hardAlpha"/>
<feOffset dx="-1"/>
<feGaussianBlur stdDeviation="0.25"/>
<feComposite in2="hardAlpha" operator="out"/>
<feColorMatrix type="matrix" values="0 0 0 0 0.909804 0 0 0 0 0.756863 0 0 0 0 0.27451 0 0 0 1 0"/>
<feBlend mode="normal" in2="effect1_dropShadow_31_2" result="effect2_dropShadow_31_2"/>
<feBlend mode="normal" in="SourceGraphic" in2="effect2_dropShadow_31_2" result="shape"/>
</filter>
<filter id="filter2_dd_31_2" x="150.399" y="171.924" width="20.925" height="20.925" filterUnits="userSpaceOnUse" color-interpolation-filters="sRGB">
<feFlood flood-opacity="0" result="BackgroundImageFix"/>
<feColorMatrix in="SourceAlpha" type="matrix" values="0 0 0 0 0 0 0 0 0 0 0 0 0 0 0 0 0 0 127 0" result="hardAlpha"/>
<feOffset dx="0.05" dy="-0.05"/>
<feGaussianBlur stdDeviation="0.05"/>
<feComposite in2="hardAlpha" operator="out"/>
<feColorMatrix type="matrix" values="0 0 0 0 0.478431 0 0 0 0 0.364706 0 0 0 0 0.584314 0 0 0 1 0"/>
<feBlend mode="normal" in2="BackgroundImageFix" result="effect1_dropShadow_31_2"/>
<feColorMatrix in="SourceAlpha" type="matrix" values="0 0 0 0 0 0 0 0 0 0 0 0 0 0 0 0 0 0 127 0" result="hardAlpha"/>
<feOffset dx="-0.05" dy="0.05"/>
<feGaussianBlur stdDeviation="0.05"/>
<feComposite in2="hardAlpha" operator="out"/>
<feColorMatrix type="matrix" values="0 0 0 0 0.807843 0 0 0 0 0.764706 0 0 0 0 0.858824 0 0 0 1 0"/>
<feBlend mode="normal" in2="effect1_dropShadow_31_2" result="effect2_dropShadow_31_2"/>
<feBlend mode="normal" in="SourceGraphic" in2="effect2_dropShadow_31_2" result="shape"/>
</filter>
<filter id="filter3_dd_31_2" x="136.198" y="157.524" width="49.7263" height="49.7262" filterUnits="userSpaceOnUse" color-interpolation-filters="sRGB">
<feFlood flood-opacity="0" result="BackgroundImageFix"/>
<feColorMatrix in="SourceAlpha" type="matrix" values="0 0 0 0 0 0 0 0 0 0 0 0 0 0 0 0 0 0 127 0" result="hardAlpha"/>
<feOffset/>
<feGaussianBlur stdDeviation="0.5"/>
<feComposite in2="hardAlpha" operator="out"/>
<feColorMatrix type="matrix" values="0 0 0 0 0.145098 0 0 0 0 0.0823529 0 0 0 0 0.215686 0 0 0 1 0"/>
<feBlend mode="normal" in2="BackgroundImageFix" result="effect1_dropShadow_31_2"/>
<feColorMatrix in="SourceAlpha" type="matrix" values="0 0 0 0 0 0 0 0 0 0 0 0 0 0 0 0 0 0 127 0" result="hardAlpha"/>
<feOffset dy="0.15"/>
<feGaussianBlur stdDeviation="0.125"/>
<feComposite in2="hardAlpha" operator="out"/>
<feColorMatrix type="matrix" values="0 0 0 0 0.207843 0 0 0 0 0.0313726 0 0 0 0 0.235294 0 0 0 1 0"/>
<feBlend mode="normal" in2="effect1_dropShadow_31_2" result="effect2_dropShadow_31_2"/>
<feBlend mode="normal" in="SourceGraphic" in2="effect2_dropShadow_31_2" result="shape"/>
</filter>
<filter id="filter4_dd_31_2" x="152.124" y="173.43" width="17.9138" height="17.9137" filterUnits="userSpaceOnUse" color-interpolation-filters="sRGB">
<feFlood flood-opacity="0" result="BackgroundImageFix"/>
<feColorMatrix in="SourceAlpha" type="matrix" values="0 0 0 0 0 0 0 0 0 0 0 0 0 0 0 0 0 0 127 0" result="hardAlpha"/>
<feOffset dx="0.05" dy="-0.05"/>
<feGaussianBlur stdDeviation="0.05"/>
<feComposite in2="hardAlpha" operator="out"/>
<feColorMatrix type="matrix" values="0 0 0 0 0.478431 0 0 0 0 0.364706 0 0 0 0 0.584314 0 0 0 1 0"/>
<feBlend mode="normal" in2="BackgroundImageFix" result="effect1_dropShadow_31_2"/>
<feColorMatrix in="SourceAlpha" type="matrix" values="0 0 0 0 0 0 0 0 0 0 0 0 0 0 0 0 0 0 127 0" result="hardAlpha"/>
<feOffset dx="-0.05" dy="0.05"/>
<feGaussianBlur stdDeviation="0.05"/>
<feComposite in2="hardAlpha" operator="out"/>
<feColorMatrix type="matrix" values="0 0 0 0 0.807843 0 0 0 0 0.764706 0 0 0 0 0.858824 0 0 0 1 0"/>
<feBlend mode="normal" in2="effect1_dropShadow_31_2" result="effect2_dropShadow_31_2"/>
<feBlend mode="normal" in="SourceGraphic" in2="effect2_dropShadow_31_2" result="shape"/>
</filter>
<filter id="filter5_dd_31_2" x="34.255" y="157.524" width="49.7262" height="49.7262" filterUnits="userSpaceOnUse" color-interpolation-filters="sRGB">
<feFlood flood-opacity="0" result="BackgroundImageFix"/>
<feColorMatrix in="SourceAlpha" type="matrix" values="0 0 0 0 0 0 0 0 0 0 0 0 0 0 0 0 0 0 127 0" result="hardAlpha"/>
<feOffset/>
<feGaussianBlur stdDeviation="0.5"/>
<feComposite in2="hardAlpha" operator="out"/>
<feColorMatrix type="matrix" values="0 0 0 0 0.145098 0 0 0 0 0.0823529 0 0 0 0 0.215686 0 0 0 1 0"/>
<feBlend mode="normal" in2="BackgroundImageFix" result="effect1_dropShadow_31_2"/>
<feColorMatrix in="SourceAlpha" type="matrix" values="0 0 0 0 0 0 0 0 0 0 0 0 0 0 0 0 0 0 127 0" result="hardAlpha"/>
<feOffset dy="0.15"/>
<feGaussianBlur stdDeviation="0.125"/>
<feComposite in2="hardAlpha" operator="out"/>
<feColorMatrix type="matrix" values="0 0 0 0 0.207843 0 0 0 0 0.0313726 0 0 0 0 0.235294 0 0 0 1 0"/>
<feBlend mode="normal" in2="effect1_dropShadow_31_2" result="effect2_dropShadow_31_2"/>
<feBlend mode="normal" in="SourceGraphic" in2="effect2_dropShadow_31_2" result="shape"/>
</filter>
<filter id="filter6_dd_31_2" x="50.175" y="173.43" width="17.9137" height="17.9137" filterUnits="userSpaceOnUse" color-interpolation-filters="sRGB">
<feFlood flood-opacity="0" result="BackgroundImageFix"/>
<feColorMatrix in="SourceAlpha" type="matrix" values="0 0 0 0 0 0 0 0 0 0 0 0 0 0 0 0 0 0 127 0" result="hardAlpha"/>
<feOffset dx="0.05" dy="-0.05"/>
<feGaussianBlur stdDeviation="0.05"/>
<feComposite in2="hardAlpha" operator="out"/>
<feColorMatrix type="matrix" values="0 0 0 0 0.478431 0 0 0 0 0.364706 0 0 0 0 0.584314 0 0 0 1 0"/>
<feBlend mode="normal" in2="BackgroundImageFix" result="effect1_dropShadow_31_2"/>
<feColorMatrix in="SourceAlpha" type="matrix" values="0 0 0 0 0 0 0 0 0 0 0 0 0 0 0 0 0 0 127 0" result="hardAlpha"/>
<feOffset dx="-0.05" dy="0.05"/>
<feGaussianBlur stdDeviation="0.05"/>
<feComposite in2="hardAlpha" operator="out"/>
<feColorMatrix type="matrix" values="0 0 0 0 0.807843 0 0 0 0 0.764706 0 0 0 0 0.858824 0 0 0 1 0"/>
<feBlend mode="normal" in2="effect1_dropShadow_31_2" result="effect2_dropShadow_31_2"/>
<feBlend mode="normal" in="SourceGraphic" in2="effect2_dropShadow_31_2" result="shape"/>
</filter>
<filter id="filter7_f_31_2" x="42.5432" y="162.388" width="35.3088" height="35.3087" filterUnits="userSpaceOnUse" color-interpolation-filters="sRGB">
<feFlood flood-opacity="0" result="BackgroundImageFix"/>
<feBlend mode="normal" in="SourceGraphic" in2="BackgroundImageFix" result="shape"/>
<feGaussianBlur stdDeviation="0.375" result="effect1_foregroundBlur_31_2"/>
</filter>
<filter id="filter8_f_31_2" x="144.781" y="162.388" width="35.3088" height="35.3087" filterUnits="userSpaceOnUse" color-interpolation-filters="sRGB">
<feFlood flood-opacity="0" result="BackgroundImageFix"/>
<feBlend mode="normal" in="SourceGraphic" in2="BackgroundImageFix" result="shape"/>
<feGaussianBlur stdDeviation="0.375" result="effect1_foregroundBlur_31_2"/>
</filter>
<linearGradient id="paint0_linear_31_2" x1="16.9194" y1="110.502" x2="95.5488" y2="110.502" gradientUnits="userSpaceOnUse">
<stop stop-color="#C9BDD1"/>
<stop offset="1" stop-color="#EBDDF3"/>
</linearGradient>
<linearGradient id="paint1_linear_31_2" x1="58.4444" y1="81.5719" x2="58.4444" y2="86.845" gradientUnits="userSpaceOnUse">
<stop stop-color="#C8C6C5"/>
<stop offset="0.495" stop-color="#C8C6C5" stop-opacity="0"/>
</linearGradient>
<linearGradient id="paint2_linear_31_2" x1="95.5488" y1="108.694" x2="94.1325" y2="108.694" gradientUnits="userSpaceOnUse">
<stop stop-color="#604114"/>
<stop offset="1" stop-color="#604114" stop-opacity="0"/>
</linearGradient>
<linearGradient id="paint3_linear_31_2" x1="100.781" y1="144.554" x2="205.549" y2="86.5219" gradientUnits="userSpaceOnUse">
<stop stop-color="#F1C147"/>
<stop offset="1" stop-color="#E0B343"/>
</linearGradient>
<linearGradient id="paint4_linear_31_2" x1="150.549" y1="48.3244" x2="150.549" y2="62.6931" gradientUnits="userSpaceOnUse">
<stop stop-color="#EAC439"/>
<stop offset="1" stop-color="#EAC439" stop-opacity="0"/>
</linearGradient>
<linearGradient id="paint5_linear_31_2" x1="205.549" y1="104.184" x2="203.562" y2="104.184" gradientUnits="userSpaceOnUse">
<stop stop-color="#DDBE7A"/>
<stop offset="1" stop-color="#DDBE7A" stop-opacity="0"/>
</linearGradient>
<linearGradient id="paint6_linear_31_2" x1="64.185" y1="95.59" x2="22.5019" y2="130.824" gradientUnits="userSpaceOnUse">
<stop stop-color="#35A5E2"/>
<stop offset="1" stop-color="#4AD3F9"/>
</linearGradient>
<linearGradient id="paint7_linear_31_2" x1="41.6144" y1="89.6431" x2="41.6144" y2="115.974" gradientUnits="userSpaceOnUse">
<stop stop-color="#1D95DD"/>
<stop offset="1" stop-color="#1D95DD" stop-opacity="0"/>
</linearGradient>
<linearGradient id="paint8_linear_31_2" x1="70.895" y1="113.795" x2="61.0706" y2="113.795" gradientUnits="userSpaceOnUse">
<stop stop-color="#48B8E6"/>
<stop offset="1" stop-color="#48B8E6" stop-opacity="0"/>
</linearGradient>
<linearGradient id="paint9_linear_31_2" x1="128.755" y1="137.665" x2="129.064" y2="179.376" gradientUnits="userSpaceOnUse">
<stop stop-color="#FD6E33"/>
<stop offset="1" stop-color="#EB3C3D"/>
</linearGradient>
<linearGradient id="paint10_linear_31_2" x1="95.5488" y1="155.471" x2="103.118" y2="155.471" gradientUnits="userSpaceOnUse">
<stop offset="0.513" stop-color="#EA3A0C"/>
<stop offset="1" stop-color="#EA3A0C" stop-opacity="0"/>
</linearGradient>
<linearGradient id="paint11_linear_31_2" x1="150.549" y1="191.806" x2="150.549" y2="174.185" gradientUnits="userSpaceOnUse">
<stop stop-color="#BC2447"/>
<stop offset="1" stop-color="#BC2447" stop-opacity="0"/>
</linearGradient>
<linearGradient id="paint12_linear_31_2" x1="191.785" y1="155.313" x2="202.757" y2="167.991" gradientUnits="userSpaceOnUse">
<stop stop-color="#BD0663"/>
<stop offset="1" stop-color="#C8166A"/>
</linearGradient>
<linearGradient id="paint13_linear_31_2" x1="54.2988" y1="134.688" x2="54.2988" y2="185.893" gradientUnits="userSpaceOnUse">
<stop stop-color="#FF7233"/>
<stop offset="1" stop-color="#EE3124"/>
</linearGradient>
<linearGradient id="paint14_linear_31_2" x1="95.5488" y1="162.834" x2="82.8713" y2="162.834" gradientUnits="userSpaceOnUse">
<stop stop-color="#FF7B3D"/>
<stop offset="1" stop-color="#FF7B3D" stop-opacity="0"/>
</linearGradient>
<linearGradient id="paint15_linear_31_2" x1="54.2988" y1="185.893" x2="54.2988" y2="174.219" gradientUnits="userSpaceOnUse">
<stop stop-color="#BC2447"/>
<stop offset="1" stop-color="#BC2447" stop-opacity="0"/>
</linearGradient>
<linearGradient id="paint16_linear_31_2" x1="95.5488" y1="156.035" x2="94.1325" y2="156.035" gradientUnits="userSpaceOnUse">
<stop stop-color="#BC2303"/>
<stop offset="1" stop-color="#BC2303" stop-opacity="0"/>
</linearGradient>
<linearGradient id="paint17_linear_31_2" x1="59.1181" y1="155.485" x2="59.1181" y2="185.893" gradientUnits="userSpaceOnUse">
<stop stop-color="#99160C"/>
<stop offset="1" stop-color="#AC0819"/>
</linearGradient>
<linearGradient id="paint18_linear_31_2" x1="160.861" y1="155.485" x2="160.861" y2="185.893" gradientUnits="userSpaceOnUse">
<stop stop-color="#99160C"/>
<stop offset="1" stop-color="#AC0819"/>
</linearGradient>
<linearGradient id="paint19_linear_31_2" x1="150.061" y1="176.385" x2="185.9" y2="176.385" gradientUnits="userSpaceOnUse">
<stop offset="0.239" stop-color="#34214F"/>
<stop offset="1" stop-color="#241337"/>
</linearGradient>
<radialGradient id="paint20_radial_31_2" cx="0" cy="0" r="1" gradientUnits="userSpaceOnUse" gradientTransform="translate(161.061 180.249) rotate(-65.5365) scale(13.0207 13.5997)">
<stop offset="0.523" stop-color="#2D114D"/>
<stop offset="1" stop-color="#2B1249" stop-opacity="0"/>
</radialGradient>
<linearGradient id="paint21_linear_31_2" x1="48.1113" y1="176.385" x2="83.9575" y2="176.385" gradientUnits="userSpaceOnUse">
<stop offset="0.239" stop-color="#34214F"/>
<stop offset="1" stop-color="#241337"/>
</linearGradient>
<radialGradient id="paint22_radial_31_2" cx="0" cy="0" r="1" gradientUnits="userSpaceOnUse" gradientTransform="translate(59.1181 180.249) rotate(-65.5365) scale(13.0207 13.5997)">
<stop offset="0.523" stop-color="#2D114D"/>
<stop offset="1" stop-color="#2B1249" stop-opacity="0"/>
</radialGradient>
<linearGradient id="paint23_linear_31_2" x1="69.1694" y1="166.966" x2="49.1563" y2="194.611" gradientUnits="userSpaceOnUse">
<stop offset="0.083" stop-color="#615B6B"/>
<stop offset="0.391" stop-color="#615B6B" stop-opacity="0"/>
<stop offset="0.692" stop-color="#615B6B" stop-opacity="0"/>
<stop offset="0.935" stop-color="#615B6B"/>
</linearGradient>
<linearGradient id="paint24_linear_31_2" x1="171.414" y1="166.966" x2="151.394" y2="194.611" gradientUnits="userSpaceOnUse">
<stop offset="0.083" stop-color="#615B6B"/>
<stop offset="0.391" stop-color="#615B6B" stop-opacity="0"/>
<stop offset="0.692" stop-color="#615B6B" stop-opacity="0"/>
<stop offset="0.935" stop-color="#615B6B"/>
</linearGradient>
</defs>
</svg>
